<mxfile host="app.diagrams.net" modified="2023-09-06T05:14:16.126Z" agent="Mozilla/5.0 (Windows NT 10.0; Win64; x64) AppleWebKit/537.36 (KHTML, like Gecko) Chrome/109.0.0.0 Safari/537.36" etag="Q57Vf6i32G_WGO4dPJRg" version="21.7.2" type="github">
  <diagram name="第 1 页" id="qsnWlvJeW-6cO8qMe_v3">
    <mxGraphModel dx="2128" dy="1337" grid="1" gridSize="10" guides="1" tooltips="1" connect="1" arrows="1" fold="1" page="0" pageScale="1" pageWidth="827" pageHeight="1169" background="none" math="0" shadow="1">
      <root>
        <mxCell id="0" />
        <mxCell id="1" parent="0" />
        <mxCell id="zA4d7zvXf4YAbisD_RFX-3" style="edgeStyle=orthogonalEdgeStyle;rounded=0;orthogonalLoop=1;jettySize=auto;html=1;exitX=0.5;exitY=1;exitDx=0;exitDy=0;exitPerimeter=0;entryX=0.5;entryY=0;entryDx=0;entryDy=0;entryPerimeter=0;" parent="1" source="zA4d7zvXf4YAbisD_RFX-1" target="zA4d7zvXf4YAbisD_RFX-9" edge="1">
          <mxGeometry relative="1" as="geometry">
            <mxPoint x="300" as="targetPoint" />
          </mxGeometry>
        </mxCell>
        <mxCell id="zA4d7zvXf4YAbisD_RFX-1" value="敌人出生" style="strokeWidth=2;html=1;shape=mxgraph.flowchart.start_1;whiteSpace=wrap;" parent="1" vertex="1">
          <mxGeometry x="250" y="-110" width="100" height="60" as="geometry" />
        </mxCell>
        <mxCell id="zA4d7zvXf4YAbisD_RFX-27" style="edgeStyle=orthogonalEdgeStyle;rounded=0;orthogonalLoop=1;jettySize=auto;html=1;exitX=0.5;exitY=1;exitDx=0;exitDy=0;exitPerimeter=0;entryX=0.5;entryY=0;entryDx=0;entryDy=0;entryPerimeter=0;" parent="1" source="zA4d7zvXf4YAbisD_RFX-6" target="zA4d7zvXf4YAbisD_RFX-26" edge="1">
          <mxGeometry relative="1" as="geometry" />
        </mxCell>
        <mxCell id="zA4d7zvXf4YAbisD_RFX-28" value="Y" style="edgeLabel;html=1;align=center;verticalAlign=middle;resizable=0;points=[];" parent="zA4d7zvXf4YAbisD_RFX-27" vertex="1" connectable="0">
          <mxGeometry x="-0.2092" relative="1" as="geometry">
            <mxPoint as="offset" />
          </mxGeometry>
        </mxCell>
        <mxCell id="zA4d7zvXf4YAbisD_RFX-30" style="edgeStyle=orthogonalEdgeStyle;rounded=0;orthogonalLoop=1;jettySize=auto;html=1;exitX=1;exitY=0.5;exitDx=0;exitDy=0;exitPerimeter=0;entryX=0.5;entryY=0;entryDx=0;entryDy=0;entryPerimeter=0;" parent="1" source="zA4d7zvXf4YAbisD_RFX-6" target="zA4d7zvXf4YAbisD_RFX-29" edge="1">
          <mxGeometry relative="1" as="geometry" />
        </mxCell>
        <mxCell id="zA4d7zvXf4YAbisD_RFX-31" value="N" style="edgeLabel;html=1;align=center;verticalAlign=middle;resizable=0;points=[];" parent="zA4d7zvXf4YAbisD_RFX-30" vertex="1" connectable="0">
          <mxGeometry x="-0.4691" y="-1" relative="1" as="geometry">
            <mxPoint x="1" y="103" as="offset" />
          </mxGeometry>
        </mxCell>
        <mxCell id="zA4d7zvXf4YAbisD_RFX-6" value="是否巡逻" style="strokeWidth=2;html=1;shape=mxgraph.flowchart.decision;whiteSpace=wrap;fillColor=#dae8fc;strokeColor=#6c8ebf;" parent="1" vertex="1">
          <mxGeometry x="250" y="330" width="100" height="40" as="geometry" />
        </mxCell>
        <mxCell id="zA4d7zvXf4YAbisD_RFX-10" style="edgeStyle=orthogonalEdgeStyle;rounded=0;orthogonalLoop=1;jettySize=auto;html=1;exitX=0.5;exitY=1;exitDx=0;exitDy=0;exitPerimeter=0;entryX=0.5;entryY=0;entryDx=0;entryDy=0;entryPerimeter=0;" parent="1" source="zA4d7zvXf4YAbisD_RFX-9" target="zA4d7zvXf4YAbisD_RFX-15" edge="1">
          <mxGeometry relative="1" as="geometry">
            <mxPoint x="300" y="160" as="targetPoint" />
          </mxGeometry>
        </mxCell>
        <mxCell id="zA4d7zvXf4YAbisD_RFX-13" value="Y" style="edgeLabel;html=1;align=center;verticalAlign=middle;resizable=0;points=[];" parent="zA4d7zvXf4YAbisD_RFX-10" vertex="1" connectable="0">
          <mxGeometry x="0.1356" y="3" relative="1" as="geometry">
            <mxPoint x="-3" y="-4" as="offset" />
          </mxGeometry>
        </mxCell>
        <mxCell id="zA4d7zvXf4YAbisD_RFX-20" style="edgeStyle=orthogonalEdgeStyle;rounded=0;orthogonalLoop=1;jettySize=auto;html=1;exitX=1;exitY=0.5;exitDx=0;exitDy=0;exitPerimeter=0;entryX=0.5;entryY=0;entryDx=0;entryDy=0;entryPerimeter=0;" parent="1" source="zA4d7zvXf4YAbisD_RFX-9" target="zA4d7zvXf4YAbisD_RFX-6" edge="1">
          <mxGeometry relative="1" as="geometry">
            <Array as="points">
              <mxPoint x="450" y="5" />
              <mxPoint x="450" y="300" />
              <mxPoint x="300" y="300" />
            </Array>
          </mxGeometry>
        </mxCell>
        <mxCell id="zA4d7zvXf4YAbisD_RFX-21" value="N" style="edgeLabel;html=1;align=center;verticalAlign=middle;resizable=0;points=[];" parent="zA4d7zvXf4YAbisD_RFX-20" vertex="1" connectable="0">
          <mxGeometry x="-0.9013" y="2" relative="1" as="geometry">
            <mxPoint x="70" y="127" as="offset" />
          </mxGeometry>
        </mxCell>
        <mxCell id="zA4d7zvXf4YAbisD_RFX-9" value="是否跑位" style="strokeWidth=2;html=1;shape=mxgraph.flowchart.decision;whiteSpace=wrap;fillColor=#dae8fc;strokeColor=#6c8ebf;" parent="1" vertex="1">
          <mxGeometry x="250" y="-20" width="100" height="50" as="geometry" />
        </mxCell>
        <mxCell id="zA4d7zvXf4YAbisD_RFX-22" style="edgeStyle=orthogonalEdgeStyle;rounded=0;orthogonalLoop=1;jettySize=auto;html=1;exitX=0.5;exitY=1;exitDx=0;exitDy=0;" parent="1" source="zA4d7zvXf4YAbisD_RFX-14" target="zA4d7zvXf4YAbisD_RFX-6" edge="1">
          <mxGeometry relative="1" as="geometry" />
        </mxCell>
        <mxCell id="zA4d7zvXf4YAbisD_RFX-14" value="按照指定方式&lt;br&gt;沿指定路径点&lt;br&gt;顺次移动" style="rounded=1;whiteSpace=wrap;html=1;absoluteArcSize=1;arcSize=14;strokeWidth=2;" parent="1" vertex="1">
          <mxGeometry x="250" y="225" width="100" height="50" as="geometry" />
        </mxCell>
        <mxCell id="zA4d7zvXf4YAbisD_RFX-16" style="edgeStyle=orthogonalEdgeStyle;rounded=0;orthogonalLoop=1;jettySize=auto;html=1;exitX=0;exitY=0.5;exitDx=0;exitDy=0;exitPerimeter=0;entryX=0;entryY=0.5;entryDx=0;entryDy=0;" parent="1" source="zA4d7zvXf4YAbisD_RFX-15" target="zA4d7zvXf4YAbisD_RFX-14" edge="1">
          <mxGeometry relative="1" as="geometry" />
        </mxCell>
        <mxCell id="zA4d7zvXf4YAbisD_RFX-23" value="走" style="edgeLabel;html=1;align=center;verticalAlign=middle;resizable=0;points=[];" parent="zA4d7zvXf4YAbisD_RFX-16" vertex="1" connectable="0">
          <mxGeometry relative="1" as="geometry">
            <mxPoint y="-5" as="offset" />
          </mxGeometry>
        </mxCell>
        <mxCell id="zA4d7zvXf4YAbisD_RFX-17" style="edgeStyle=orthogonalEdgeStyle;rounded=0;orthogonalLoop=1;jettySize=auto;html=1;exitX=0.5;exitY=1;exitDx=0;exitDy=0;exitPerimeter=0;entryX=0.5;entryY=0;entryDx=0;entryDy=0;" parent="1" source="zA4d7zvXf4YAbisD_RFX-15" target="zA4d7zvXf4YAbisD_RFX-14" edge="1">
          <mxGeometry relative="1" as="geometry" />
        </mxCell>
        <mxCell id="zA4d7zvXf4YAbisD_RFX-24" value="跑" style="edgeLabel;html=1;align=center;verticalAlign=middle;resizable=0;points=[];" parent="zA4d7zvXf4YAbisD_RFX-17" vertex="1" connectable="0">
          <mxGeometry relative="1" as="geometry">
            <mxPoint y="-5" as="offset" />
          </mxGeometry>
        </mxCell>
        <mxCell id="zA4d7zvXf4YAbisD_RFX-18" style="edgeStyle=orthogonalEdgeStyle;rounded=0;orthogonalLoop=1;jettySize=auto;html=1;exitX=1;exitY=0.5;exitDx=0;exitDy=0;exitPerimeter=0;entryX=1;entryY=0.5;entryDx=0;entryDy=0;" parent="1" source="zA4d7zvXf4YAbisD_RFX-15" target="zA4d7zvXf4YAbisD_RFX-14" edge="1">
          <mxGeometry relative="1" as="geometry" />
        </mxCell>
        <mxCell id="zA4d7zvXf4YAbisD_RFX-25" value="爬?" style="edgeLabel;html=1;align=center;verticalAlign=middle;resizable=0;points=[];" parent="zA4d7zvXf4YAbisD_RFX-18" vertex="1" connectable="0">
          <mxGeometry relative="1" as="geometry">
            <mxPoint y="-5" as="offset" />
          </mxGeometry>
        </mxCell>
        <mxCell id="zA4d7zvXf4YAbisD_RFX-15" value="跑位方式&lt;br&gt;走/跑/爬？" style="strokeWidth=2;html=1;shape=mxgraph.flowchart.decision;whiteSpace=wrap;fillColor=#dae8fc;strokeColor=#6c8ebf;" parent="1" vertex="1">
          <mxGeometry x="250" y="75" width="100" height="50" as="geometry" />
        </mxCell>
        <mxCell id="zA4d7zvXf4YAbisD_RFX-19" value="配置项" style="strokeWidth=2;html=1;shape=mxgraph.flowchart.decision;whiteSpace=wrap;fillColor=#dae8fc;strokeColor=#6c8ebf;" parent="1" vertex="1">
          <mxGeometry x="-130" y="-120" width="100" height="50" as="geometry" />
        </mxCell>
        <mxCell id="zA4d7zvXf4YAbisD_RFX-36" style="edgeStyle=orthogonalEdgeStyle;rounded=0;orthogonalLoop=1;jettySize=auto;html=1;exitX=0;exitY=0.5;exitDx=0;exitDy=0;exitPerimeter=0;" parent="1" source="zA4d7zvXf4YAbisD_RFX-26" target="zA4d7zvXf4YAbisD_RFX-33" edge="1">
          <mxGeometry relative="1" as="geometry" />
        </mxCell>
        <mxCell id="zA4d7zvXf4YAbisD_RFX-37" style="edgeStyle=orthogonalEdgeStyle;rounded=0;orthogonalLoop=1;jettySize=auto;html=1;exitX=0.5;exitY=1;exitDx=0;exitDy=0;exitPerimeter=0;entryX=0.5;entryY=0;entryDx=0;entryDy=0;" parent="1" source="zA4d7zvXf4YAbisD_RFX-26" target="zA4d7zvXf4YAbisD_RFX-34" edge="1">
          <mxGeometry relative="1" as="geometry" />
        </mxCell>
        <mxCell id="zA4d7zvXf4YAbisD_RFX-38" style="edgeStyle=orthogonalEdgeStyle;rounded=0;orthogonalLoop=1;jettySize=auto;html=1;exitX=1;exitY=0.5;exitDx=0;exitDy=0;exitPerimeter=0;" parent="1" source="zA4d7zvXf4YAbisD_RFX-26" target="zA4d7zvXf4YAbisD_RFX-35" edge="1">
          <mxGeometry relative="1" as="geometry" />
        </mxCell>
        <mxCell id="zA4d7zvXf4YAbisD_RFX-26" value="巡逻方式&lt;br&gt;范围随机/路径循环/原地Idle&lt;br&gt;？" style="strokeWidth=2;html=1;shape=mxgraph.flowchart.decision;whiteSpace=wrap;fillColor=#dae8fc;strokeColor=#6c8ebf;" parent="1" vertex="1">
          <mxGeometry x="215" y="430" width="170" height="70" as="geometry" />
        </mxCell>
        <mxCell id="zA4d7zvXf4YAbisD_RFX-29" value="执行AI自身行为" style="strokeWidth=2;html=1;shape=mxgraph.flowchart.start_1;whiteSpace=wrap;" parent="1" vertex="1">
          <mxGeometry x="430" y="750" width="100" height="60" as="geometry" />
        </mxCell>
        <mxCell id="zA4d7zvXf4YAbisD_RFX-40" style="edgeStyle=orthogonalEdgeStyle;rounded=0;orthogonalLoop=1;jettySize=auto;html=1;exitX=0.5;exitY=1;exitDx=0;exitDy=0;entryX=0.5;entryY=0;entryDx=0;entryDy=0;entryPerimeter=0;" parent="1" source="zA4d7zvXf4YAbisD_RFX-33" target="zA4d7zvXf4YAbisD_RFX-39" edge="1">
          <mxGeometry relative="1" as="geometry" />
        </mxCell>
        <mxCell id="zA4d7zvXf4YAbisD_RFX-33" value="范围随机巡逻" style="rounded=1;whiteSpace=wrap;html=1;absoluteArcSize=1;arcSize=14;strokeWidth=2;" parent="1" vertex="1">
          <mxGeometry x="135" y="520" width="80" height="30" as="geometry" />
        </mxCell>
        <mxCell id="zA4d7zvXf4YAbisD_RFX-41" style="edgeStyle=orthogonalEdgeStyle;rounded=0;orthogonalLoop=1;jettySize=auto;html=1;exitX=0.5;exitY=1;exitDx=0;exitDy=0;" parent="1" source="zA4d7zvXf4YAbisD_RFX-34" edge="1">
          <mxGeometry relative="1" as="geometry">
            <mxPoint x="299.9310344827586" y="620" as="targetPoint" />
          </mxGeometry>
        </mxCell>
        <mxCell id="zA4d7zvXf4YAbisD_RFX-34" value="按照路径循环&lt;br&gt;顺次/往复" style="rounded=1;whiteSpace=wrap;html=1;absoluteArcSize=1;arcSize=14;strokeWidth=2;" parent="1" vertex="1">
          <mxGeometry x="260" y="520" width="80" height="30" as="geometry" />
        </mxCell>
        <mxCell id="zA4d7zvXf4YAbisD_RFX-42" style="edgeStyle=orthogonalEdgeStyle;rounded=0;orthogonalLoop=1;jettySize=auto;html=1;exitX=0.5;exitY=1;exitDx=0;exitDy=0;" parent="1" source="zA4d7zvXf4YAbisD_RFX-35" target="zA4d7zvXf4YAbisD_RFX-39" edge="1">
          <mxGeometry relative="1" as="geometry" />
        </mxCell>
        <mxCell id="zA4d7zvXf4YAbisD_RFX-35" value="原地Idle" style="rounded=1;whiteSpace=wrap;html=1;absoluteArcSize=1;arcSize=14;strokeWidth=2;" parent="1" vertex="1">
          <mxGeometry x="400" y="520" width="50" height="30" as="geometry" />
        </mxCell>
        <mxCell id="zA4d7zvXf4YAbisD_RFX-44" style="edgeStyle=orthogonalEdgeStyle;rounded=0;orthogonalLoop=1;jettySize=auto;html=1;exitX=0.5;exitY=1;exitDx=0;exitDy=0;exitPerimeter=0;" parent="1" source="zA4d7zvXf4YAbisD_RFX-39" target="zA4d7zvXf4YAbisD_RFX-43" edge="1">
          <mxGeometry relative="1" as="geometry" />
        </mxCell>
        <mxCell id="zA4d7zvXf4YAbisD_RFX-47" value="Y" style="edgeLabel;html=1;align=center;verticalAlign=middle;resizable=0;points=[];" parent="zA4d7zvXf4YAbisD_RFX-44" vertex="1" connectable="0">
          <mxGeometry x="-0.2215" y="2" relative="1" as="geometry">
            <mxPoint as="offset" />
          </mxGeometry>
        </mxCell>
        <mxCell id="zA4d7zvXf4YAbisD_RFX-45" style="edgeStyle=orthogonalEdgeStyle;rounded=0;orthogonalLoop=1;jettySize=auto;html=1;exitX=0;exitY=0.5;exitDx=0;exitDy=0;exitPerimeter=0;entryX=0.5;entryY=0;entryDx=0;entryDy=0;entryPerimeter=0;" parent="1" source="zA4d7zvXf4YAbisD_RFX-39" target="zA4d7zvXf4YAbisD_RFX-26" edge="1">
          <mxGeometry relative="1" as="geometry">
            <Array as="points">
              <mxPoint x="120" y="640" />
              <mxPoint x="120" y="410" />
              <mxPoint x="300" y="410" />
            </Array>
          </mxGeometry>
        </mxCell>
        <mxCell id="zA4d7zvXf4YAbisD_RFX-46" value="N" style="edgeLabel;html=1;align=center;verticalAlign=middle;resizable=0;points=[];" parent="zA4d7zvXf4YAbisD_RFX-45" vertex="1" connectable="0">
          <mxGeometry x="-0.9167" y="1" relative="1" as="geometry">
            <mxPoint as="offset" />
          </mxGeometry>
        </mxCell>
        <mxCell id="zA4d7zvXf4YAbisD_RFX-39" value="是否发现敌人" style="strokeWidth=2;html=1;shape=mxgraph.flowchart.decision;whiteSpace=wrap;fillColor=#dae8fc;strokeColor=#6c8ebf;" parent="1" vertex="1">
          <mxGeometry x="252.5" y="620" width="95" height="40" as="geometry" />
        </mxCell>
        <mxCell id="zA4d7zvXf4YAbisD_RFX-48" style="edgeStyle=orthogonalEdgeStyle;rounded=0;orthogonalLoop=1;jettySize=auto;html=1;exitX=0.5;exitY=1;exitDx=0;exitDy=0;entryX=0;entryY=0.5;entryDx=0;entryDy=0;entryPerimeter=0;" parent="1" source="zA4d7zvXf4YAbisD_RFX-43" target="zA4d7zvXf4YAbisD_RFX-29" edge="1">
          <mxGeometry relative="1" as="geometry" />
        </mxCell>
        <mxCell id="zA4d7zvXf4YAbisD_RFX-43" value="进入战斗" style="rounded=1;whiteSpace=wrap;html=1;absoluteArcSize=1;arcSize=14;strokeWidth=2;" parent="1" vertex="1">
          <mxGeometry x="260" y="705" width="80" height="30" as="geometry" />
        </mxCell>
        <mxCell id="Sy0rRWAcBeGMcVVUymvI-5" value="跑位阶段" style="shape=curlyBracket;whiteSpace=wrap;html=1;rounded=1;labelPosition=left;verticalLabelPosition=middle;align=right;verticalAlign=middle;" vertex="1" parent="1">
          <mxGeometry x="70" y="80" width="20" height="220" as="geometry" />
        </mxCell>
        <mxCell id="Sy0rRWAcBeGMcVVUymvI-6" value="巡逻阶段" style="shape=curlyBracket;whiteSpace=wrap;html=1;rounded=1;labelPosition=left;verticalLabelPosition=middle;align=right;verticalAlign=middle;" vertex="1" parent="1">
          <mxGeometry x="70" y="390" width="20" height="270" as="geometry" />
        </mxCell>
        <mxCell id="Sy0rRWAcBeGMcVVUymvI-7" value="跑位过程中" style="strokeWidth=2;html=1;shape=mxgraph.flowchart.document2;whiteSpace=wrap;size=0.25;" vertex="1" parent="1">
          <mxGeometry x="470" y="120" width="100" height="60" as="geometry" />
        </mxCell>
      </root>
    </mxGraphModel>
  </diagram>
</mxfile>
